<svg height="24" width="24" xmlns="http://www.w3.org/2000/svg" xmlns:xlink="http://www.w3.org/1999/xlink"><filter id="a" color-interpolation-filters="sRGB" height="1.492622" width="1.468009" x="-.234004" y="-.246311"><feGaussianBlur stdDeviation="1.26769"/></filter><linearGradient id="b" gradientTransform="matrix(-1 0 0 1 -10 0)" gradientUnits="userSpaceOnUse" x1="-27.999138" x2="-15.999137" y1="14.324797" y2="14.324797"><stop offset="0" stop-color="#fff"/><stop offset=".5" stop-color="#fff" stop-opacity="0"/><stop offset="1" stop-color="#fff" stop-opacity="0"/></linearGradient><clipPath id="c"><path d="m11.999135 19.000849-7.00085-6.19157 7.00085-6.16053v3.67605h6.00085v5h-6.00085z"/></clipPath><path d="m13.358929 18.790743-7.00085-6.19157 7.00085-6.16053v3.67605h6.00085v5h-6.00085z" filter="url(#a)" opacity=".5" stroke="#000" stroke-width="2" transform="matrix(0 -1 1 0 .885303 25.359777)"/><path d="m18.67605 11.00085-6.19157 7.00085-6.16053-7.00085h3.67605v-6.00085h5v6.00085z" fill="none" stroke="#fff" stroke-width="2"/><path d="m18.67605 11.00085-6.19157 7.00085-6.16053-7.00085h3.67605v-6.00085h5v6.00085z" fill="#333"/><path clip-path="url(#c)" d="m11.999135 19.000849-7.00085-6.19157 7.00085-6.16053v3.67605h6.00085v5h-6.00085z" fill="none" opacity=".1" stroke="url(#b)" stroke-width="2" transform="matrix(0 -1 1 0 -.324797 23.032037)"/></svg>