<svg height="128" width="128" xmlns="http://www.w3.org/2000/svg" xmlns:xlink="http://www.w3.org/1999/xlink"><linearGradient id="a" gradientTransform="matrix(.3803794 0 0 .39792162 77.913763 13.548234)" gradientUnits="userSpaceOnUse" x1="38.851257" x2="34.130882" y1="41.608219" y2="37.809635"><stop offset="0" stop-color="#fbac9b"/><stop offset="1" stop-color="#fcfafc"/></linearGradient><linearGradient id="b" gradientTransform="matrix(.5438829 0 0 .56896553 70.971743 5.735664)" gradientUnits="userSpaceOnUse" x1="38.851257" x2="34.130882" y1="41.608219" y2="37.809635"><stop offset="0" stop-color="#feffff"/><stop offset="1" stop-color="#fe70ca"/></linearGradient><radialGradient id="c" cx="36.49107" cy="39.708927" gradientTransform="matrix(.5438829 0 0 .56896553 75.534407 8.497284)" gradientUnits="userSpaceOnUse" r="3.158929" xlink:href="#d"/><linearGradient id="d"><stop offset="0" stop-color="#fff"/><stop offset="1" stop-color="#fff" stop-opacity="0"/></linearGradient><radialGradient id="e" cx="36.49107" cy="39.708927" gradientTransform="matrix(1.9066219 -1.1007887 .62631081 1.0848021 -5.064445 21.706694)" gradientUnits="userSpaceOnUse" r="3.158929" xlink:href="#d"/><radialGradient id="f" cx="36.49107" cy="39.708927" gradientTransform="matrix(2.3693784 -1.3679613 .7783228 1.3480947 -16.222875 35.161754)" gradientUnits="userSpaceOnUse" r="3.158929" xlink:href="#d"/><radialGradient id="g" cx="32.372566" cy="31.405056" gradientTransform="matrix(-1.5152343 -1.5152343 1.5152343 -1.5152343 97.466004 126.64397)" gradientUnits="userSpaceOnUse" r="3.857446"><stop offset="0" stop-color="#ff54d2" stop-opacity="0"/><stop offset=".32368398" stop-color="#ff54d2" stop-opacity="0"/><stop offset=".56140333" stop-color="#ff54d2" stop-opacity=".252174"/><stop offset="1" stop-color="#ff54d2" stop-opacity=".478261"/></radialGradient><radialGradient id="h" cx="32.372566" cy="31.405056" gradientTransform="matrix(1.2971465 1.801238 -1.7388916 1.2522482 108.61661 -65.659984)" gradientUnits="userSpaceOnUse" r="3.857446" xlink:href="#i"/><linearGradient id="i"><stop offset="0" stop-color="#fff" stop-opacity="0"/><stop offset=".40531859" stop-color="#fff" stop-opacity="0"/><stop offset="1" stop-color="#fff" stop-opacity=".478261"/></linearGradient><radialGradient id="j" cx="32.372566" cy="31.405056" gradientTransform="matrix(0 2.2196953 -2.1428649 -.00000001 163.30388 -39.877766)" gradientUnits="userSpaceOnUse" r="3.857446" xlink:href="#i"/><radialGradient id="k" cx="32.372566" cy="31.405056" gradientTransform="matrix(2.144061 .57449942 -.55461425 2.0698485 43.998898 -51.620008)" gradientUnits="userSpaceOnUse" r="3.857446" xlink:href="#i"/><linearGradient id="l" gradientTransform="matrix(.16581446 0 0 .12436084 84.904627 22.568404)" gradientUnits="userSpaceOnUse" x1="68.313301" x2="68.313301" xlink:href="#d" y1="52.925316" y2="65.922028"/><linearGradient id="m" gradientUnits="userSpaceOnUse" x1="96.28571415737" x2="96.28571415737" xlink:href="#n" y1="24.49725082761" y2="39.67128232309"/><linearGradient id="n"><stop offset="0" stop-color="#fff"/><stop offset=".33799788" stop-color="#fff" stop-opacity=".235294"/><stop offset=".61996669" stop-color="#fff" stop-opacity=".156863"/><stop offset="1" stop-color="#fff" stop-opacity=".392157"/></linearGradient><radialGradient id="o" cx="32.372566" cy="31.405056" gradientTransform="matrix(-2.1428649 0 0 -2.1428649 165.38007 99.29857)" gradientUnits="userSpaceOnUse" r="3.857446"><stop offset="0" stop-color="#ff54d2" stop-opacity="0"/><stop offset=".32368398" stop-color="#f62b68"/><stop offset=".56140333" stop-color="#ff0105"/><stop offset="1" stop-color="#ff54d2" stop-opacity=".478261"/></radialGradient><linearGradient id="p" gradientTransform="matrix(.84224595 0 0 -.84224595 18.441179 59.42489)" gradientUnits="userSpaceOnUse" x1="92.696327" x2="92.696327" xlink:href="#n" y1="16.554602" y2="48.983677"/><radialGradient id="q" cx="95.838364" cy="95.388451" gradientTransform="matrix(.57546739 -.00000009 .00000008 .54069512 40.75891 -19.796419)" gradientUnits="userSpaceOnUse" r="9.498172"><stop offset="0" stop-opacity="0"/><stop offset=".5" stop-opacity="0"/><stop offset="1"/></radialGradient><radialGradient id="r" cx="23.896" cy="3.99" gradientTransform="matrix(0 .52770403 -.69656002 0 98.779271 14.544124)" gradientUnits="userSpaceOnUse" r="20.396999"><stop offset="0" stop-color="#612f91"/><stop offset="1" stop-color="#1a4aa2"/></radialGradient><linearGradient id="s" gradientTransform="matrix(.22110591 0 0 .22110594 90.693459 26.685044)" gradientUnits="userSpaceOnUse" x1="7.0776" x2="7.0776" y1="3.0816" y2="45.368999"><stop offset="0" stop-color="#170418"/><stop offset="1" stop-color="#50386b"/></linearGradient><radialGradient id="t" cx="31.999998" cy="21.239277" gradientTransform="matrix(0 2.0115211 -4.6336383 0 194.41512 -43.137653)" gradientUnits="userSpaceOnUse" r="10.498171"><stop offset="0" stop-color="#07132d"/><stop offset="1" stop-color="#425479"/></radialGradient><radialGradient id="u" cx="91.349998" cy="16.447752" gradientTransform="matrix(0 1.8361326 -1.8361326 0 126.20025 -149.86687)" gradientUnits="userSpaceOnUse" r="15.639286"><stop offset="0" stop-color="#2d3955"/><stop offset=".72468865" stop-color="#2b3853"/><stop offset=".75" stop-color="#192640"/><stop offset="1" stop-color="#08142e"/></radialGradient><linearGradient id="v" gradientUnits="userSpaceOnUse" x1="96.6666656275" x2="96.6666656275" xlink:href="#n" y1="14.50456842998" y2="49.9106422437"/><linearGradient id="w" gradientUnits="userSpaceOnUse" x1="95.40028370331" x2="95.40028370331" y1="13.49175707788" y2="50.5276278852"><stop offset="0" stop-color="#7a8498"/><stop offset="1" stop-color="#34405c"/></linearGradient><linearGradient id="x" gradientUnits="userSpaceOnUse" x1="95.890476109" x2="95.890476109" y1="9.10127151681" y2="55.10153346014"><stop offset="0" stop-color="#b6b6b6"/><stop offset=".33095336" stop-color="#a4a4a4"/><stop offset="1" stop-color="#c5c5c5"/></linearGradient><linearGradient id="y" gradientUnits="userSpaceOnUse" x1="93.81830500597" x2="93.81830500597" y1="3.93055162668" y2="60.34544285954"><stop offset="0" stop-color="#fff"/><stop offset=".42447853" stop-color="#fff" stop-opacity=".235294"/><stop offset=".82089913" stop-color="#fff" stop-opacity=".156863"/><stop offset="1" stop-color="#fff" stop-opacity=".392157"/></linearGradient><radialGradient id="z" cx="23.896" cy="3.99" gradientTransform="matrix(0 4.01575 -5.3007188 0 117.1504 -93.06069)" gradientUnits="userSpaceOnUse" r="20.396999"><stop offset="0" stop-color="#fff"/><stop offset=".26238" stop-color="#ddd"/><stop offset=".66093999" stop-color="#abacae"/><stop offset="1" stop-color="#89898b"/></radialGradient><radialGradient id="A" cx="99.157013" cy="186.17059" gradientTransform="matrix(.38235362 0 0 .11948554 58.086958 33.246384)" gradientUnits="userSpaceOnUse" r="62.769119"><stop offset="0" stop-color="#3d3d3d"/><stop offset=".5" stop-color="#686868" stop-opacity=".498039"/><stop offset="1" stop-color="#686868" stop-opacity="0"/></radialGradient><linearGradient id="B" gradientUnits="userSpaceOnUse" spreadMethod="reflect" x1="59.998197" x2="65.634744" xlink:href="#C" y1="1.7236" y2="-15.47659"/><linearGradient id="C"><stop offset="0" stop-color="#fff"/><stop offset="1" stop-color="#fff" stop-opacity=".54321"/></linearGradient><linearGradient id="D" gradientUnits="userSpaceOnUse" spreadMethod="reflect" x1="59.998197" x2="48.634744" xlink:href="#C" y1="-3.2764" y2="-18.47659"/><linearGradient id="E" gradientTransform="matrix(.40474014 0 0 .4102096 107.85556 -11.213146)" gradientUnits="userSpaceOnUse" x1="-184.92441" x2="-175.25337" y1="113.97943" y2="88.801025"><stop offset="0" stop-color="#7a0f01"/><stop offset="1" stop-color="#d31807"/></linearGradient><linearGradient id="F" gradientUnits="userSpaceOnUse" x1="-211.28862" x2="-208.49672" y1="88.750069" y2="75.190559"><stop offset="0" stop-color="#ec4502"/><stop offset="1" stop-color="#fe7617"/></linearGradient><linearGradient id="G" gradientTransform="matrix(.63152836 0 0 .6401138 146.17378 -18.968446)" gradientUnits="userSpaceOnUse" x1="-107.45584" x2="-107.45584" y1="-37.385227" y2="38.561256"><stop offset="0" stop-color="#0b85e9"/><stop offset="1" stop-color="#69d1ef"/></linearGradient><linearGradient id="H" gradientTransform="matrix(.63152836 0 0 .6401138 146.17378 -18.968446)" gradientUnits="userSpaceOnUse" x1="-96.557358" x2="-96.557358" y1="110.92493" y2="39.991924"><stop offset="0" stop-color="#e89c42"/><stop offset="1" stop-color="#faca67"/></linearGradient><linearGradient id="I" gradientTransform="matrix(2.891892 0 0 2.3243242 -5.405389 -51.283646)" gradientUnits="userSpaceOnUse" x1="41.19519" x2="41.19519" xlink:href="#J" y1="5.539567" y2="42.37582"/><linearGradient id="J"><stop offset="0" stop-color="#fff"/><stop offset=".00515018" stop-color="#fff" stop-opacity=".235294"/><stop offset=".99146652" stop-color="#fff" stop-opacity=".156863"/><stop offset="1" stop-color="#fff" stop-opacity=".392157"/></linearGradient><linearGradient id="K" gradientTransform="matrix(3.0857075 0 0 1.8903662 -10.056921 -43.777064)" gradientUnits="userSpaceOnUse" x1="25.132275" x2="25.132275" xlink:href="#L" y1=".985206" y2="47.013336"/><linearGradient id="L"><stop offset="0" stop-color="#f4f4f4"/><stop offset="1" stop-color="#dbdbdb"/></linearGradient><linearGradient id="M" gradientTransform="matrix(2.6500948 .00149554 .00054314 1.9115384 322.11035 -51.926363)" gradientUnits="userSpaceOnUse" x1="-76.834877" x2="-76.844345" xlink:href="#N" y1="6.680585" y2="52.887863"/><linearGradient id="N"><stop offset="0" stop-opacity=".270588"/><stop offset="1" stop-opacity=".368"/></linearGradient><radialGradient id="O" cx="19.53446" cy="40.430397" gradientTransform="matrix(2.4655539 0 0 .16715632 10.836737 42.23354)" gradientUnits="userSpaceOnUse" r="23.929714"><stop offset="0"/><stop offset="1" stop-opacity="0"/></radialGradient><linearGradient id="P" gradientTransform="matrix(2.6500948 .00149554 .00054314 1.9115384 322.11035 13.082002)" gradientUnits="userSpaceOnUse" x1="-76.834877" x2="-76.844345" xlink:href="#N" y1="6.680585" y2="52.887863"/><linearGradient id="Q" gradientTransform="matrix(3.0857075 0 0 1.8903662 -10.056922 21.2313)" gradientUnits="userSpaceOnUse" x1="18.542377" x2="25.132275" xlink:href="#L" y1="6.868004" y2="47.013336"/><linearGradient id="R" gradientTransform="matrix(2.891892 0 0 2.3243242 -5.405389 13.724719)" gradientUnits="userSpaceOnUse" x1="41.19519" x2="41.19519" xlink:href="#J" y1="5.539567" y2="42.37582"/><g transform="translate(0 64)"><g transform="matrix(.95797721 .25833648 -.25668922 .96412487 20.533428 -82.54943)"><path d="m118.50009 113.50015h-109.0000737v-88.000268h109.0000737z" fill="none" stroke="url(#P)" stroke-linejoin="round" stroke-width="1.004999"/><path d="m10.000056 26.000111c24.748282 0 107.999874.0054 107.999874.0054l.00012 86.994599s-71.999988 0-107.999994 0c0-28.999987 0-57.999974 0-86.999964z" fill="url(#Q)"/><g stroke-width="1.005077"><path d="m16.500001 32.500119c21.769322 0 94.999889.0046 94.999889.0046l.00011 73.995391s-63.333324 0-94.999999 0c0-24.666673 0-49.333338 0-74z" fill="#49bdea" stroke="#158bb9"/><path d="m117.5 112.50848h-107v-86h107z" fill="none" stroke="url(#R)" stroke-linecap="round"/></g></g><path d="m118 48.99172a59.000002 4.0000031 0 0 1 -117.999999 0 59.000002 4.0000031 0 1 1 117.999999 0z" fill="url(#O)" opacity=".2"/><path d="m118.50009 48.49177h-109.0000731v-88.000252h109.0000731z" fill="none" stroke="url(#M)" stroke-linejoin="round" stroke-width=".999922"/><path d="m10.000057-39.008253c24.748282 0 107.999873.0054 107.999873.0054l.00012 86.994583s-71.999987 0-107.999993 0c0-28.999976 0-57.999956 0-86.999948z" fill="url(#K)"/><path d="m117.5 47.5001h-106.999999v-85.999984h106.999999z" fill="none" stroke="url(#I)" stroke-linecap="round"/><path d="m16.000001-33.008256v74.999996h95.999999v-74.999996z" fill="url(#H)"/><path d="m16.000001-32.741466v43.5258c2.2182.55868 4.97926.99508 8.23636.99508 4.43124 0 6.75498-.81346 8.45454-1.54791 1.69958-.7344503 2.66276-1.3267803 6.05456-1.3267803 3.23728 0 5.86366 1.07814 9.10908 2.2665803 3.24544 1.18845 7.06392 2.43244 12.27274 2.43244 6.47014 0 10.66028-2.06328 14.12726-3.9803503 3.46696-1.91706 6.14084-3.59336 10.47274-3.59336 3.42118 0 4.95518.83342 7.0909 1.8796 2.1357 1.04619 4.82546 2.2665903 9.272719 2.2665903 5.59534 0 8.15014-2.0666203 10.9091-3.3722403v-39.5454497z" opacity=".05"/><path d="m16.000001-31.741296v41.5913497c2.14426.5778703 4.92488 1.0503703 8.23636 1.0503703 8.4432 0 7.23856-2.8746903 14.5091-2.8746903 7.27052 0 11.55298 4.6990103 21.38182 4.6990103 12.17418 0 14.96792-7.5737103 24.6-7.5737103 7.52126 0 8.08594 4.14619 16.363619 4.14619 5.59196 0 7.44904-2.17815 10.9091-3.59336v-37.4451597z" opacity=".15"/><path d="m16.000001-33.008256v38.2739597c1.42546.66618 3.23054 1.2715 5.18182 1.2715 4.45614 0 8.81396-3.64865 16.25454-3.64865s13.03684 4.58845 22.41818 4.58845 11.49272-6.63390997 23.45456-6.63390997c11.9618 0 10.837 4.20147997 18.327259 4.20147997 5.15944 0 7.36284-1.82636 10.36364-2.98526v-35.0675697z" fill="url(#G)"/><path d="m83.309101-.58399627c-6.28388 0-10.23664 1.80337997-13.47274 3.48279997s-5.67744 3.1511-9.98182 3.1511c-4.42348 0-7.91956-1.07118-11.4-2.2113-3.48044-1.14011-6.96102-2.37715-11.01818-2.37715-3.98816 0-7.19452.95076-9.81818 1.87961-2.62366.92884-4.65558 1.76904-6.43636 1.76904-1.61236 0-3.18402-.55867-4.47272-1.16093a1.6611221 1.6835697 0 0 0 -.7091-.16585v7.2420103c2.20876.56018 4.9795.99509 8.23636.99509 4.4076 0 6.65002-.81524 8.34546-1.54792 1.69544-.7326603 2.74436-1.3267803 6.16364-1.3267803 3.2822 0 5.9224 1.0796903 9.16364 2.2665903 3.2412 1.1869 7.04258 2.43243 12.21818 2.43243 6.42692 0 10.61058-2.06594 14.07272-3.9803403 3.46214-1.9144 6.14076-3.59337 10.52728-3.59337 3.45948 0 5.06648.88979 7.2 1.93489 2.13348 1.0451 4.75116 2.2113003 9.163619 2.2113003 5.61918 0 8.08214-2.1130303 10.9091-3.4275103v-6.35749997a1.6611221 1.6835697 0 0 0 -.6.11055c-3.29058 1.27081997-4.99094 2.87469997-9.76364 2.87469997-3.438719 0-4.511919-.83499-6.763639-1.93489-2.25172-1.09989997-5.39086-2.26658997-11.56362-2.26658997z" fill="#fff" opacity=".1"/><path d="m83.309101.07495373c-11.96184 0-14.07322 6.63389997-23.45456 6.63389997s-14.9776-4.58845-22.41818-4.58845-11.7984 3.64865-16.25454 3.64865c-1.95128 0-3.75636-.60532-5.18182-1.2715v3.8145c2.14426.57786 4.92488 1.05036 8.23636 1.05036 8.4432 0 7.23856-2.87469 14.5091-2.87469 7.27052 0 11.55298 4.6990203 21.38182 4.6990203 12.17418 0 14.96792-7.5737103 24.6-7.5737103 7.52126 0 8.08594 4.14619 16.363619 4.14619 5.59196 0 7.44904-2.17815 10.9091-3.59336v-2.8747c-3.0008 1.1589-5.2042 2.98526-10.36364 2.98526-7.490259 0-6.365459-4.20146997-18.327259-4.20146997z" fill="#fff" opacity=".3"/><path d="m83.309101.84309373c-11.96184 0-14.07322 6.63390997-23.45456 6.63390997s-14.9776-4.58845-22.41818-4.58845-11.7984 3.64865-16.25454 3.64865c-1.95128 0-3.75636-.60532-5.18182-1.2715v3.81449c2.14426.57787 4.92488 1.0503703 8.23636 1.0503703 8.4432 0 7.23856-2.8746903 14.5091-2.8746903 7.27052 0 11.55298 4.6990203 21.38182 4.6990203 12.17418 0 14.96792-7.5737103 24.6-7.5737103 7.52126 0 8.08594 4.14619 16.363619 4.14619 5.59196 0 7.44904-2.17815 10.9091-3.59337v-2.87469c-3.0008 1.1589-5.2042 2.98526-10.36364 2.98526-7.490259 0-6.365459-4.20147997-18.327259-4.20147997z" fill="#fff"/><path d="m-220.96875 57c-.39362.000584-.83277.06242-1.25.25-1.63955.737128-1.83781 2.068115-2 2.96875s-.1864 1.790704-.15625 2.8125c.0603 2.043591.3476 4.510385.65625 6.96875s.64462 4.909462.8125 6.8125c.0839.951519.13717 1.775727.125 2.3125-.001.04863-.0265.04911-.0312.09375-.0189.01041-.0111.02137-.0312.03125-.45854.224585-1.18869.53337-2.0625.84375-1.74763.62076-4.07506 1.31199-6.375 2.03125s-4.58402 1.445691-6.40625 2.21875c-.91112.38653-1.70109.78472-2.4375 1.3125-.36821.26389-.74002.543858-1.09375 1.03125s-.69281 1.308121-.59375 2.21875c.19468 1.789611 1.37988 2.381068 2.1875 2.8125s1.67381.714367 2.65625 1c1.96488.571266 4.3756 1.06857 6.8125 1.53125s4.88574.886537 6.75 1.3125c.93213.212981 1.71157.44818 2.21875.625.0634.0221.0712.03677.125.0625.002.01399-.002.01684 0 .03125.0721.506194.1308 1.290821.15625 2.21875.0509 1.85586-.005 4.27546-.0312 6.6875-.0259 2.41204-.0165 4.80772.15625 6.78125.0864.98677.19429 1.85507.46875 2.71875.13723.43184.30216.88792.65625 1.375s1.00885 1.06266 1.90625 1.25c1.76046.36751 2.68337-.585 3.34375-1.21875s1.20533-1.3426 1.78125-2.1875c1.15184-1.6898 2.36786-3.82837 3.5625-6s2.36145-4.39202 3.34375-6.03125c.49115-.81962.95603-1.47895 1.28125-1.90625.0375-.0493.0557-.05316.0937-.09375.006-.0068.0249.0065.0312 0 .50311.08725 1.26699.27006 2.15625.53125 1.77853.52238 4.06063 1.32753 6.34375 2.09375s4.5716 1.49492 6.5 1.9375c.9642.22129 1.81306.40169 2.71875.40625.45285.002.92806-.0319 1.5-.21875s1.32651-.61196 1.78125-1.40625c.89295-1.55971.30547-2.77037-.0937-3.59375-.39922-.823378-.9366-1.567727-1.5625-2.375-1.25179-1.614545-2.92844-3.415807-4.625-5.21875s-3.40079-3.593814-4.65625-5.03125c-.62773-.718718-1.16313-1.341096-1.46875-1.78125-.0276-.03969-.009-.05516-.0312-.09375.0114-.02517-.0136-.03678 0-.0625.23887-.451739.66342-1.109598 1.1875-1.875 1.04815-1.530803 2.53213-3.470731 3.96875-5.40625s2.82509-3.864709 3.84375-5.5625c.50933-.848896.9338-1.608736 1.21875-2.46875.14248-.430007.25054-.898053.25-1.5s-.16581-1.446462-.78125-2.125c-1.20813-1.331998-2.53071-1.155391-3.4375-1.03125s-1.75593.405463-2.71875.75c-1.92564.689074-4.16255 1.727709-6.40625 2.78125s-4.49116 2.127-6.25 2.875c-.87942.374-1.64171.658117-2.15625.8125-.0579.01739-.0715.0209-.125.03125-.0157-.01477-.0156-.01514-.0312-.03125-.35501-.36606-.87267-.984774-1.4375-1.71875-1.12966-1.467953-2.51238-3.444182-3.90625-5.40625s-2.79591-3.914302-4.09375-5.40625c-.64892-.745974-1.23913-1.369729-1.96875-1.90625-.36481-.268261-.77098-.533465-1.34375-.71875-.28638-.09264-.63763-.156834-1.03125-.15625z" opacity=".05" transform="matrix(.4098604 .03221134 -.03379884 .39252612 125.95362 -1.480226)"/><path d="m-221.19925 59.520404c2.23327-1.004058 11.02102 14.801399 13.39774 15.390331 2.46151.609944 18.18574-9.02056 19.88946-7.142161 1.64503 1.813691-10.67128 15.055497-10.49695 17.497875.18056 2.529518 14.19877 14.50816 12.93878 16.708951-1.21658 2.12498-17.61623-5.496586-19.8852-4.576045-2.34992.953383-9.41042 17.987095-11.89286 17.468865-2.39692-.50038-.21615-18.452579-1.79278-20.326032-1.63289-1.940293-20.01473-3.391523-20.28897-5.912603-.2648-2.434233 17.48265-5.90773 18.7772-7.986128 1.34074-2.152551-2.95936-20.083173-.64642-21.123053z" opacity=".15" transform="matrix(.4098604 .03221134 -.03379884 .39252612 125.95362 -1.480226)"/><path d="m-221.19925 59.520404c2.23327-1.004058 11.02102 14.801399 13.39774 15.390331 2.46151.609944 18.18574-9.02056 19.88946-7.142161 1.64503 1.813691-10.67128 15.055497-10.49695 17.497875.18056 2.529518 14.19877 14.50816 12.93878 16.708951-1.21658 2.12498-17.61623-5.496586-19.8852-4.576045-2.34992.953383-9.41042 17.987095-11.89286 17.468865-2.39692-.50038-.21615-18.452579-1.79278-20.326032-1.63289-1.940293-20.01473-3.391523-20.28897-5.912603-.2648-2.434233 17.48265-5.90773 18.7772-7.986128 1.34074-2.152551-2.95936-20.083173-.64642-21.123053z" fill="url(#F)" transform="matrix(.4098604 .03221134 -.03379884 .39252612 125.95362 -2.480316)"/><path d="m33.345417 13.745554-.27826.26919c-.002.006-.01.008-.012.0122-.558621 1.35991.33628 7.31098-.22766 8.03755-.0236.0304-.0576.0722-.101201.10257l.227681.15385c4.56142 1.37442.5689-8.28979.45532-8.56312-.0218-.004-.043-.0142-.0632-.0122z" fill="#9d0f06" opacity=".5"/><path d="m26.313056 24.436644c-.89732.008-1.41658.0513-1.41658.0513v.0122.20511c.5263.97316 7.50022 2.08658 8.082141 2.87147.58288.78616-.914881 7.76392.0506 8.03753.99994.2834 4.46864-6.17508 5.464-6.47362.95506-.28644 7.34132 3.18511 7.98098 2.44845l-.012-.0122c-5.38524-6.64141-16.260841-7.1734-20.149201-7.14022z" fill="url(#E)" opacity=".75"/><path d="m49.250001-33.008256-3.90625 1.34375-17.1875 7.125-12.15625-1.46875v2.90625c1.63936-.95069 11.59375.09375 11.59375.09375l2.53125 5.4375-4.625 2.21875-1.8125 4.625h-2.09375l-.84375 1.9687497-4.75-.34375v2.0625l9.5.375 1.96875-1.40625 19.125-.6875 5.46875-.6875 5.15625 1.53125.4375-.5625c.978085-.55891 8.9375-1.5624997 8.9375-1.5624997 1.676723 0 7.96875 1.4062497 7.96875 1.4062497.768099 2.30429 1.575879 9.16967003 1.71875 10.40625 1.187801-.34273 2.52158-.59127 4-.75-1.137869-1.28985997-2.59932-4.18104-2.25-10.46875l4.0625-.15625s10.891162-5.3031597 13.40625-6.2812497c2.51508-.97809 13.996049-.41344 15.812499-1.53125l.125-1.75c-.34713.41263-2.62312 1.27936-15.093749 1.59375 0 0-14.128594 6.28484-14.6875 6.84375l-4.03125.15625 3.34375-4.46875 9.09375-4.90625-6.71875-9.09375 14.6875-.96875 6.593749-3h-3.9375l-3.781249 1.34375-11.4375.53125-2.21875-1.875h-3.875c.25302.59807.399405 1.1526.21875 1.46875 0 0-4.473774 1.6875-7.6875 1.6875l-2.65625-.4375c-2.280581 0-9.299099-1.96465-11.90625-2.71875zm56.437499 0 5.1875.34375-.0625-.34375zm-52.937499.21875 1.6875.96875 17.75 3.90625 6.96875-2.21875 2.5 1.53125 6.3125 8.375-8.25 4.0625-4.46875 5.3125-8.09375-.5625-10.21875 2.0937497-4.75-1.5312497-26.25.9687497c.838364-5.0301697 5.875-4.5937497 5.875-4.5937497l-1.84375-8.8125zm58.687499 13.40625v.1875c.0905-.12581 0-.1875 0-.1875z" fill="url(#D)" opacity=".04"/><path d="m46.593751-33.008256-1.53125.53125a.85907812.85907812 0 0 0 -.0625.03125l-16.96875 7.03125-11.9375-1.4375a.85907812.85907812 0 0 0 -.09375 0v4.625a.85907812.85907812 0 0 0 .4375-.125c.02444-.0142.971465-.24675 2.09375-.28125s2.510717.0233 3.84375.0937c2.406164.1271 4.209599.3014 4.625.34375l1.96875 4.21875-3.84375 1.84375a.85907812.85907812 0 0 0 -.4375.46875l-1.59375 4.09375h-1.5a.85907812.85907812 0 0 0 -.78125.5l-.625 1.4374997-4.125-.3125a.85907812.85907812 0 0 0 -.0625 0v3.75l9.46875.375a.85907812.85907812 0 0 0 .53125-.1562l1.75-1.25 18.875-.6875a.85907812.85907812 0 0 0 .0625 0l5.3125-.65625 4.96875 1.46875a.85907812.85907812 0 0 0 .9375-.28125l.3125-.375c.06094-.0214.107277-.0716.3125-.125.283464-.0737.662442-.13447 1.09375-.21875.862616-.16856 1.950663-.37189 3-.53125 2.051154-.3115 3.88197-.55153 3.96875-.5625.01234 0 .08016-.00028.09375 0 .644958.0135 2.610212.34561 4.34375.6875 1.487658.29339 2.422032.50749 2.8125.59375.31596 1.10203.68046 3.02922.96875 5 .313612 2.14389003.553947 4.16627.625 4.78125a.85907812.85907812 0 0 0 .03125.15625c1.616246-.53384 3.454485-.92997 5.65625-1.09374997a.85907812.85907812 0 0 0 -.1875-.46875c-.912744-1.03466-2.233783-3.55524003-2.0625-9.09375003l3.25-.125a.85907812.85907812 0 0 0 .34375-.0625s2.716655-1.3350297 5.75-2.7812497 6.434612-3.01797 7.59375-3.46875c.396997-.15439 1.598131-.3372 3.03125-.4375s3.136189-.15828 4.843749-.21875c1.70756-.0605 3.40754-.12751 4.8125-.25s2.42441-.2107 3.25-.71875a.85907812.85907812 0 0 0 .25-.21875v-3.125c-.0328-.0265-.0937-.0625-.0937-.0625a.85907812.85907812 0 0 0 -1.28125.4375c-.048.0267.0206-.003-.1875.0625-.38518.12152-1.06844.25659-2.125.40625-2.11312.29933-5.78325.62452-11.999999.78125a.85907812.85907812 0 0 0 -.31255.0625s-3.549681 1.5756-7.15625 3.21875c-1.803284.82157-3.619847 1.64077-5.03125 2.3125-.705701.33586-1.296501.64265-1.75.875-.226749.11617-.408745.22457-.5625.3125-.03221.0184-.06669.0486-.09375.0625l-2.03125.0937 2.15625-2.90625 8.9375-4.8125a.85907812.85907812 0 0 0 .28125-1.25l-5.8125-7.84375 13.15625-.875a.85907812.85907812 0 0 0 .28125-.0625l6.593749-3a.85907812.85907812 0 0 0 .1875-.125.85907812.85907812 0 0 0 .0312 0 .85907812.85907812 0 0 0 .4375.1875l5.1875.34375a.85907812.85907812 0 0 0 .90625-1l-.0312-.18745h-13.593749l-1.40625.5-10.90625.5-1.1875-1h-6.0625a.85907812.85907812 0 0 0 .0625.34375c.08039.19003.117042.32807.15625.46875-.756491.26631-4.16598 1.48166-6.78125 1.5l-2.59375-.4375a.85907812.85907812 0 0 0 -.125 0c-.893625 0-3.27804-.48169-5.625-1.0625-1.087496-.26913-2.163945-.54351-3.15625-.8125zm6.09375 1.1875 1.3125.75a.85907812.85907812 0 0 0 .25.0937l17.75 3.9063a.85907812.85907812 0 0 0 .4375-.0312l6.625-2.09375 1.96875 1.1875 5.625 7.46875-7.3125 3.59375a.85907812.85907812 0 0 0 -.28125.21875l-4.21875 5-7.625-.53125a.85907812.85907812 0 0 0 -.25 0l-10 2.0625-4.53125-1.46875a.85907812.85907812 0 0 0 -.28125-.0312l-24.90625.90615c.534939-1.30917 1.341581-2.12264 2.25-2.46875 1.162211-.4428 2.25-.375 2.25-.375a.85907812.85907812 0 0 0 .90625-1.03125l-1.6875-8.125z" fill="url(#B)" opacity=".03"/><path d="m16.500001-32.508256c21.769321 0 94.999899.005 94.999899.005l.0001 73.994996s-63.333323 0-94.999999 0c0-24.666546 0-49.3330863 0-73.999616z" fill="none" opacity=".3" stroke="#000"/><path d="m120 55.49106a24.000002 7.5000006 0 0 1 -47.999999 0 24.000002 7.5000006 0 1 1 47.999999 0z" fill="url(#A)"/><path d="m96.000001 3.4910737c-15.725317 0-28.5 12.7746803-28.5 28.5000003 0 15.725296 12.774683 28.499986 28.5 28.499986 15.725309 0 28.500009-12.77469 28.499999-28.499986 0-15.72532-12.77469-28.5000003-28.499999-28.5000003z" fill="url(#z)"/><path d="m96.000001 3.4910737c-15.725317 0-28.5 12.7746803-28.5 28.5000003 0 15.725296 12.774683 28.499986 28.5 28.499986 15.725309 0 28.500009-12.77469 28.499999-28.499986 0-15.72532-12.77469-28.5000003-28.499999-28.5000003z" fill="none" opacity=".3" stroke="#000" stroke-linecap="round" stroke-linejoin="round"/><path d="m123.5 31.991074c0 15.187816-12.31218 27.499986-27.500013 27.499986-15.187812 0-27.499986-12.31217-27.499986-27.499986 0-15.18783 12.312174-27.4999903 27.499986-27.4999903 15.187833 0 27.500013 12.3121603 27.500013 27.4999903z" fill="none" opacity=".8" stroke="url(#y)" stroke-linecap="round" stroke-linejoin="round"/><path d="m96.000002 8.9917437c-12.691188 0-23.000001 10.3099103-23.000001 23.0000003 0 12.691166 10.309906 22.999986 23.000001 22.999986 12.691168 0 22.999998-10.30991 22.999998-22.999986 0-12.69119-10.30991-23.0000003-22.999998-23.0000003z" fill="url(#x)"/><path d="m96.000002 9.4917437c-12.415293 0-22.500001 10.3099103-22.500001 23.0000003 0 12.691166 10.085777 22.999986 22.500001 22.999986 12.415278 0 22.499998-10.30991 22.499998-22.999986 0-12.69118-10.08578-23.0000003-22.499998-23.0000003z" fill="none" opacity=".05" stroke="#000"/><path d="m114.5 31.991754a18.500002 18.500002 0 0 1 -37 0 18.500002 18.500002 0 1 1 37 0z" fill="url(#w)"/><path d="m114.5 31.991744a18.500002 18.500002 0 0 1 -37 0 18.500002 18.500002 0 1 1 37 0z" fill="none" opacity=".3" stroke="#000"/><path d="m113.5 31.991744a17.500002 17.500002 0 0 1 -34.999999 0 17.500002 17.500002 0 1 1 34.999999 0z" fill="none" opacity=".3" stroke="url(#v)"/><path d="m110.49999 31.991744a14.5 14.5 0 1 1 -28.99999 0 14.5 14.5 0 1 1 28.99999 0z" fill="url(#u)"/><path d="m96.000001 21.493574c-5.792408 0-10.498173 4.70553-10.498173 10.49817 0 5.792396 4.705765 10.498166 10.498173 10.498166 5.792399 0 10.498169-4.70553 10.498169-10.498166 0-5.79241-4.70553-10.49817-10.498169-10.49817z" fill="url(#t)"/><path d="m96.000001 21.493574c-5.792408 0-10.498173 4.70553-10.498173 10.49817 0 5.792396 4.705765 10.498166 10.498173 10.498166 5.792399 0 10.498169-4.70553 10.498169-10.498166 0-5.79241-4.70553-10.49817-10.498169-10.49817z" style="opacity:.3;fill:none;stroke:#000;stroke-width:1.003654;stroke-linecap:round;stroke-linejoin:round"/><path d="m96.000001 23.493584c-4.688901 0-8.498174 3.80908-8.498174 8.49817 0 4.688896 3.809273 8.498176 8.498174 8.498176 4.688889 0 8.498169-3.80909 8.498169-8.498176 0-4.6889-3.80908-8.49817-8.498169-8.49817z" fill="#2f3b55"/><path d="m96 27.493574c-2.481885 0-4.498173 2.01619-4.498173 4.49817 0 2.48188 2.016288 4.498166 4.498173 4.498166 2.481881 0 4.49817-2.016176 4.49817-4.498166 0-2.48189-2.016189-4.49817-4.49817-4.49817z" fill="url(#r)" stroke="url(#s)" stroke-linecap="round" stroke-linejoin="round" stroke-width="1.003654"/><path d="m96 27.729494c-2.351712 0-4.262247 1.91045-4.262247 4.26225 0 2.35171 1.910535 4.262246 4.262247 4.262246 2.351711 0 4.26225-1.910436 4.26225-4.262246 0-2.35171-1.910449-4.26225-4.26225-4.26225z" fill="url(#q)" opacity=".5"/><g fill="none"><path d="m109.5 31.991744a13.500002 13.500002 0 1 0 -26.999999 0 13.500002 13.500002 0 0 0 26.999999 0z" opacity=".3" stroke="url(#p)"/><path d="m110.5 32.491744a14.500001 14.500001 0 0 1 -28.999998 0 14.500001 14.500001 0 1 1 28.999998 0z" opacity=".3" stroke="#000"/><path d="m96.000001 23.493584c-4.688901 0-8.498174 3.80908-8.498174 8.49817 0 4.688896 3.809273 8.498176 8.498174 8.498176 4.688889 0 8.498169-3.80909 8.498169-8.498176 0-4.6889-3.80908-8.49817-8.498169-8.49817z" opacity=".3" stroke="#000" stroke-linecap="round" stroke-linejoin="round" stroke-width="1.003654"/></g><path d="m88.146752 30.466484a8.0000004 8.0000004 0 0 1 5.782698-6.20213l2.070553 7.72741z" fill="url(#o)" opacity=".4"/><path d="m103.5 31.991754a7.500002 7.500002 0 0 1 -14.999999 0 7.500002 7.500002 0 1 1 14.999999 0z" fill="none" opacity=".3" stroke="url(#m)"/><path d="m97.894333 30.570994a1.8943321 1.420749 0 0 1 -3.788664 0 1.8943321 1.420749 0 1 1 3.788664 0z" fill="url(#l)" opacity=".5"/><path d="m104 31.991754a8.0000004 8.0000004 0 0 1 -.50513 2.79765l-7.494872-2.79765z" fill="url(#k)" opacity=".4"/><path d="m96.71908 39.95937a8.0000004 8.0000004 0 0 1 -2.557316-.18168l1.838235-7.785936z" fill="url(#j)" opacity=".4"/><path d="m102.79457 36.21477a8.0000003 8.0000003 0 0 1 -3.736309 3.16935l-3.058261-7.392366z" fill="url(#h)" opacity=".4"/><path d="m90.343145 24.334904a8.0000004 8.0000004 0 0 1 11.313705 0l-5.65685 5.65685z" fill="url(#g)" opacity=".5"/><path d="m108.62934 34.453484a4.9173354 8.642589 59.999998 0 1 -14.969397 8.642586 4.9173354 8.642589 59.999998 1 1 14.969397-8.642586z" fill="url(#f)" opacity=".2"/><path d="m95.40324 21.136754a3.9569421 6.9546257 59.999999 1 1 -12.045765 6.95462 3.9569421 6.9546257 59.999999 1 1 12.045765-6.95462z" fill="url(#e)" opacity=".4"/><path d="m97.099363 31.090294a1.7180872 1.7973215 0 1 1 -3.436174 0 1.7180872 1.7973215 0 1 1 3.436174 0z" fill="url(#c)" opacity=".8"/><path d="m92.536699 28.328674a1.7180872 1.7973215 0 1 1 -3.436174 0 1.7180872 1.7973215 0 1 1 3.436174 0z" fill="url(#b)" opacity=".4"/><path d="m92.995805 29.349274a1.2015914 1.257006 0 1 1 -2.403182 0 1.2015914 1.257006 0 1 1 2.403182 0z" fill="url(#a)" opacity=".4"/></g></svg>