<svg height="16" width="16" xmlns="http://www.w3.org/2000/svg"><path d="m8 0a8 8 0 0 0 0 16 8 8 0 0 0 3-.583984v-.416016h-1c-.554 0-1-.446-1-1v-2c0-.554.446-1 1-1h1v-.453125c-.585344-.344451-1.2644048-.546875-2-.546875h-2c-1.869 0-3.39975 1.273-3.84375 3-1.312-1.272-2.15625-3.028-2.15625-5a7 7 0 0 1 7-7 7 7 0 0 1 7 7c0 .5100922-.059581 1.0039195-.166016 1.4804688.095773.1534987.166016.3245317.166016.5195312v1h.414062a8 8 0 0 0 -7.414062-11zm0 3.25c-1.795 0-3.25 1.4-3.25 3.125 0 1.726 1.455 3.125 3.25 3.125s3.25-1.4 3.25-3.125c0-1.726-1.455-3.125-3.25-3.125zm4 6.75v2h-2v2h2v2h2v-2h2v-2h-2v-2z" fill="#666"/></svg>