<svg height="48" width="48" xmlns="http://www.w3.org/2000/svg" xmlns:xlink="http://www.w3.org/1999/xlink"><linearGradient id="a" gradientTransform="matrix(1.0317991 -1.0287411 1.0317991 1.0287411 -26.552863 26.472819)" gradientUnits="userSpaceOnUse" x1="31.864639" x2="16.14513" y1="17.130236" y2="32.849743"><stop offset="0" stop-color="#fff"/><stop offset="1" stop-color="#fff" stop-opacity=".340206"/></linearGradient><linearGradient id="b" gradientUnits="userSpaceOnUse" x1="23.946236" x2="23.946236" y1="10.018302" y2="45.084789"><stop offset="0" stop-color="#797a78"/><stop offset="1" stop-color="#555754"/></linearGradient><radialGradient id="c" cx="23.070683" cy="35.127438" gradientTransform="matrix(2.1051704 .0242764 -.01890445 .4098357 -23.646352 28.671497)" gradientUnits="userSpaceOnUse" r="10.31934"><stop offset="0"/><stop offset="1" stop-opacity="0"/></radialGradient><path d="m47.746933 43.547437c0 2.459083-10.631859 4.452563-23.746921 4.452563-13.115063 0-23.74692244-1.99348-23.74692244-4.452563s10.63185944-4.452563 23.74692244-4.452563c13.115062 0 23.746921 1.99348 23.746921 4.452563z" fill="url(#c)" opacity=".255708"/><path d="m41.892473 37.519904-10.392473-10.016937 10-10.493816-7.208617-6.5-10.291383 10-10.5-10-7.5 6.739081 10.5 10.211992-10.5 10.048927 7.5 7 10.487815-10.5 10.512185 10.5z" fill="url(#b)" stroke="#4d4d4d" stroke-linejoin="round" stroke-width=".981699"/><path d="m40 17.009151-5.650121-5.131474-10.349879 10.131474-10.557639-10.115278-5.942361 5.384724m10.5 10.175215-10.5 10.055339m32.942361 0-10.442361-10" fill="none" opacity=".4" stroke="url(#a)" stroke-width=".982"/></svg>