<svg height="16" width="16" xmlns="http://www.w3.org/2000/svg"><path d="m7.2260666 2.5c.4312184 0 .7783725.3346464.7783725.7503279v2.7496721h5.2171889c.431219 0 .778372.3346463.778372.7503279v1.4993441c0 .4156821-.347153.7507379-.778372.750328h-5.2171889v2.749674c0 .41568-.3471541.750326-.7783725.750326-.2324095 0-.4398747-.09736-.5822593-.252062l-4.4309703-4.2237847c-.13161-.1343797-.212837-.3149932-.212837-.5143854 0-.1993924.081225-.3800049.212837-.5143849l4.4309703-4.2433196c.1423846-.1547105.3498498-.2520634.5822593-.2520634z" fill="#555761"/></svg>