<svg height="48" width="48" xmlns="http://www.w3.org/2000/svg" xmlns:xlink="http://www.w3.org/1999/xlink"><radialGradient id="a" cx="605.71429" cy="486.64789" gradientTransform="matrix(-2.774389 0 0 1.969706 112.7623 -872.8854)" gradientUnits="userSpaceOnUse" r="117.14286" xlink:href="#b"/><linearGradient id="b"><stop offset="0"/><stop offset="1" stop-opacity="0"/></linearGradient><radialGradient id="c" cx="605.71429" cy="486.64789" gradientTransform="matrix(2.774389 0 0 1.969706 -1891.633 -872.8854)" gradientUnits="userSpaceOnUse" r="117.14286" xlink:href="#b"/><linearGradient id="d" gradientTransform="matrix(2.774389 0 0 1.969706 -1892.179 -872.8854)" gradientUnits="userSpaceOnUse" x1="302.85715" x2="302.85715" y1="366.64789" y2="609.50507"><stop offset="0" stop-opacity="0"/><stop offset=".5"/><stop offset="1" stop-opacity="0"/></linearGradient><linearGradient id="e"><stop offset="0" stop-color="#fff"/><stop offset="1" stop-color="#fff" stop-opacity="0"/></linearGradient><linearGradient id="f" gradientTransform="matrix(1.098989 0 0 -.797757 -1.953865 37.324)" gradientUnits="userSpaceOnUse" x1="21.9326" x2="21.9326" y1="24.627399" y2="7.1091"><stop offset="0" stop-color="#8595bc"/><stop offset="1" stop-color="#041a3b"/></linearGradient><linearGradient id="g" gradientTransform="matrix(1.098989 0 0 1.106697 -1.953865 -4.922453)" gradientUnits="userSpaceOnUse" x1="21.9326" x2="21.9326" y1="24.6274" y2="7.1091"><stop offset="0" stop-color="#d0d6e5" stroke-width="1.216667"/><stop offset="1" stop-color="#093a80" stroke-width="1.216667"/></linearGradient><linearGradient id="h" gradientTransform="matrix(1.434003 0 0 .990087 52.32167 2.838918)" gradientUnits="userSpaceOnUse" x1="12.4873" x2="31.0813" y1="3.7319" y2="36.0328"><stop offset="0" stop-color="#d2d2d2" stroke-width="1.216667"/><stop offset="1" stop-color="#ededed" stroke-width="1.216667"/></linearGradient><radialGradient id="i" cx="12.700491" cy="10.404876" gradientTransform="matrix(1.710531 0 0 1.124849 -11.56833 1.802582)" gradientUnits="userSpaceOnUse" r="19.96875" xlink:href="#e"/><linearGradient id="j" gradientUnits="userSpaceOnUse" x1="38.543574" x2="39.317618" xlink:href="#e" y1="33.511541" y2="34.660589"/><linearGradient id="k" gradientUnits="userSpaceOnUse" x1="41.144152" x2="38.812491" y1="37.423429" y2="34.735929"><stop offset="0" stop-color="#7c7c7c"/><stop offset="1" stop-color="#b8b8b8"/></linearGradient><linearGradient id="l" gradientUnits="userSpaceOnUse" x1="42.1875" x2="45" y1="31" y2="39.984692"><stop offset="0" stop-color="#bbbdba"/><stop offset="1" stop-color="#70746e"/></linearGradient><g transform="matrix(.02175112 0 0 .02493263 42.41049 33.81117)"><path d="m-1559.2523-150.69685h1339.6335v478.35718h-1339.6335z" fill="url(#d)" opacity=".402062"/><path d="m-219.61876-150.68038v478.33079c142.874166.90045 345.40022-107.16966 345.40014-239.196175 0-132.026537-159.436816-239.134595-345.40014-239.134615z" fill="url(#c)" opacity=".402062"/><path d="m-1559.2523-150.68038v478.33079c-142.8742.90045-345.4002-107.16966-345.4002-239.196175 0-132.026537 159.4368-239.134595 345.4002-239.134615z" fill="url(#a)" opacity=".402062"/></g><path d="m2.7177715 6.4547749h40.6617725c.623249 0 1.124999.5017498 1.124999 1.1249996v23.9008065c0 .62325-8.456701 8.019291-9.07995 8.019291h-32.7068215c-.6232494 0-1.1249988-.50175-1.1249988-1.125v-30.7950975c0-.6232498.5017494-1.1249996 1.1249988-1.1249996z" fill="url(#h)" stroke="#bbbfbb"/><g transform="matrix(1.054774 0 0 1.049989 -.814647 4.485012)"><path d="m5.512695 30h34.130539v-10.372625h-34.130539z" fill="url(#f)"/><path d="m5.512695 5.237844h34.130539v14.389531h-34.130539z" fill="url(#g)"/><g stroke="none" stroke-width="1.156111" transform="matrix(1.189217 0 0 1.189217 -3.525355 -6.535408)"><path d="m18.4 15.4c0 2.2-1.8 4.1-4.1 4.1-2.2 0-4.1-1.8-4.1-4.1 0-2.2 1.8-4.1 4.1-4.1 2.2 0 4.1 1.8 4.1 4.1z" fill="#e8f52f" opacity=".05"/><path d="m18 15.4c0 2-1.6 3.7-3.7 3.7-2 0-3.7-1.6-3.7-3.7 0-2 1.6-3.7 3.7-3.7 2 0 3.7 1.6 3.7 3.7z" fill="#ecf751" opacity=".2083"/><path d="m17.6 15.4c0 1.8-1.5 3.3-3.3 3.3s-3.3-1.5-3.3-3.3 1.5-3.3 3.3-3.3 3.3 1.5 3.3 3.3z" fill="#f0f972" opacity=".3667"/><path d="m17.2 15.4c0 1.6-1.3 2.9-2.9 2.9s-2.9-1.3-2.9-2.9 1.3-2.9 2.9-2.9 2.9 1.3 2.9 2.9z" fill="#f4fa95" opacity=".525"/><path d="m16.8 15.4c0 1.4-1.1 2.5-2.5 2.5s-2.5-1.1-2.5-2.5 1.1-2.5 2.5-2.5 2.5 1.1 2.5 2.5z" fill="#f7fcb7" opacity=".6833"/><path d="m16.4 15.4c0 1.2-1 2.1-2.1 2.1s-2.1-1-2.1-2.1 1-2.1 2.1-2.1 2.1 1 2.1 2.1z" fill="#fbfddb" opacity=".8417"/><path d="m16 15.4c0 1-.8 1.8-1.8 1.8s-1.8-.8-1.8-1.8.8-1.8 1.8-1.8 1.8.8 1.8 1.8z" fill="#fff"/></g><path d="m25.015859 21.649044h8.681289l1.664904.475688h-2.854121s2.854121.237842 4.281184 2.021669c1.427059 1.664904-1.664905 3.686575-1.664905 3.686575-.118922-.356766-.832454-3.210889-2.259514-4.400106-1.070297-.951374-2.259514-1.189218-2.259514-1.189218h-5.589323v-.475686z" opacity=".3"/><path d="m30.724106 22.362574h-4.994715l9.275897 5.232557z" opacity=".3"/><g fill="#515151"><path d="m25.015859 21.767966h8.681289l1.30814-.832453h-2.854121s2.616276-.475686 2.973043-3.448731c.356763-2.973043-4.043341-6.302851-4.043341-6.302851v.118922c.118921.71353 1.308138 5.708243.475688 7.610993-.356767 1.664901-1.427062 2.021667-1.427062 2.021667h-5.470401l.237844.832453z"/><path d="m30.248418 20.459827h-4.994714l5.946086-9.038054z"/></g></g><path d="m2.8042317 7.4528585h40.4297533c.150381 0 .271446.1210649.271446.271446v23.6983465c0 .945876-7.103744 7.077349-7.254125 7.077349h-33.4470743c-.150381 0-.2714459-.121065-.2714459-.271446v-30.5042495c0-.1503811.1210649-.271446.2714459-.271446z" fill="none" stroke="#fff"/><path d="m5.5 10.5h35.0625v25.0625h-35.0625z" fill="none" opacity=".846591" stroke="#4f4f4f"/><path d="m35.206652 39.468763c2.030418.329898 9.588793-4.529929 9.284411-8.497844-1.563262 2.423097-4.758522 1.286738-8.86728 1.445748 0 0 .395369 6.552096-.417131 7.052096z" fill="url(#k)" fill-rule="evenodd" stroke="url(#l)"/><path d="m36.657089 37.277261c1.369779-.683829 4.428249-2.146465 5.72763-4.027469-1.596094.680055-2.94781.209496-5.702334.190405 0 0 .162322 3.062094-.025296 3.837064z" fill="none" opacity=".369318" stroke="url(#j)"/><path d="m3.0625 8v22.0625c22.326079.888361 24.822134-13.0625 39.9375-13.0625v-9h-39.9375z" fill="url(#i)" opacity=".301136"/></svg>