<svg height="16" width="16" xmlns="http://www.w3.org/2000/svg" xmlns:xlink="http://www.w3.org/1999/xlink"><linearGradient id="a" gradientUnits="userSpaceOnUse" x1="200.23929" x2="200.23929" y1="1020.5864" y2="1031.7922"><stop offset="0" stop-color="#fff"/><stop offset=".24566023" stop-color="#fff" stop-opacity=".235294"/><stop offset=".69259435" stop-color="#fff" stop-opacity=".156863"/><stop offset="1" stop-color="#fff" stop-opacity=".392157"/></linearGradient><radialGradient id="b" cx="196" cy="1026.3622" fx="196.37857" fy="1023.4138" gradientTransform="matrix(1 0 0 .86666667 -188 -881.51391)" gradientUnits="userSpaceOnUse" r="7.5"><stop offset="0" stop-color="#fda767"/><stop offset="1" stop-color="#d94500"/></radialGradient><path d="m4.71875 1.5c-2.32995 0-4.21875 1.8708-4.21875 4.1786 0 1.2015.52613 2.2881 1.34766 3.0468 2.23899 1.6069 4.91865 3.9175 6.15234 5.7746 1.23369-1.8571 3.91335-4.1677 6.15234-5.7746.821529-.7587 1.34766-1.8453 1.34766-3.0468 0-2.3078-1.8888-4.1786-4.21875-4.1786-1.5747 0-2.08772.8519-2.8125 2.1183-.72478-1.2664-2.1753-2.1183-3.75-2.1183z" fill="url(#b)"/><g fill="none"><path d="m192.71875 1020.375c-2.06211 0-3.71875 1.6248-3.71875 3.6562 0 1.0548.46697 2.022 1.1875 2.6876 2.06327 1.4857 4.41794 3.5075 5.8125 5.3437 1.39456-1.8362 3.74923-3.858 5.8125-5.3437.72055-.6656 1.1875-1.6327 1.1875-2.6876 0-2.0314-1.65664-3.6562-3.71875-3.6562-.69865 0-1.07723.1485-1.40625.4375s-.60833.7765-.96875 1.4063a.506474.506474 0 0 1 -.875 0c-.62733-1.0962-1.91519-1.8438-3.3125-1.8438z" stroke="#ff0b0a" transform="translate(-188 -1018.3622)"/><path d="m4.71875 1.5c-2.32995 0-4.21875 1.8708-4.21875 4.1786 0 1.2015.52613 2.2881 1.34766 3.0468 2.23899 1.6069 4.91865 3.9175 6.15234 5.7746 1.23369-1.8571 3.91335-4.1677 6.15234-5.7746.821529-.7587 1.34766-1.8453 1.34766-3.0468 0-2.3078-1.8888-4.1786-4.21875-4.1786-1.5747 0-2.08772.8519-2.8125 2.1183-.72478-1.2664-2.1753-2.1183-3.75-2.1183z" opacity=".3" stroke="#000"/><path d="m192.71875 1021.3438c-1.54536 0-2.75 1.1891-2.75 2.6874 0 .7569.33513 1.4527.84375 1.9376.01.01.0212.022.0312.031 1.80872 1.3078 3.67323 2.9838 5.15625 4.6875 1.48302-1.7037 3.34753-3.3797 5.15625-4.6875.0112-.01.02-.023.0312-.031.50867-.4849.84375-1.1805.84375-1.9376 0-1.4983-1.20464-2.6874-2.75-2.6874-.52752 0-.58818.077-.75.2187-.16182.1421-.42463.5331-.78125 1.1563a1.4836412 1.4836412 0 0 1 -2.5625 0c-.4393-.7676-1.4137-1.3751-2.46875-1.375z" opacity=".1" stroke="#f50100" transform="translate(-188 -1018.3622)"/><path d="m11.21875 4.0181c-.48508.6-.74371 1.4019-1.46228 1.7857-1.25864.812-2.97333.167-3.62174-1.1157-.71874-.7827-2.14989-.8431-2.81084.045-.50147.6467-.40375 1.6484.20736 2.1915.38836.3542.87767.6651 1.28979 1.0217 1.11743.9063 2.17638 1.884 3.17896 2.9157 1.38103-1.4193 2.86613-2.7413 4.46875-3.9062.32605-.3687.59876-.8707.52303-1.3931-.0487-.8588-.86823-1.522-1.71053-1.4819z" opacity=".05" stroke="#e10100"/><path d="m192.71875 1020.9375c-1.76996 0-3.15625 1.3637-3.15625 3.0937 0 .8472.35065 1.6278.90625 2.1876.0223.016.0402.046.0625.062.0107.01.0204.021.0312.031 1.93086 1.3941 3.97018 3.2118 5.4375 5 1.46732-1.7882 3.50664-3.6059 5.4375-5 .0112-.01.0201-.023.0312-.031.0213-.02.0417-.041.0625-.062.55563-.5598.90625-1.3403.90625-2.1876 0-1.73-1.38629-3.0937-3.15625-3.0937-.6019 0-.79676.1065-1.03125.3125s-.51673.624-.875 1.25a1.0589257 1.0589257 0 0 1 -1.8125 0c-.52102-.9104-1.63994-1.5625-2.84375-1.5625z" opacity=".5" stroke="url(#a)" transform="translate(-188 -1018.3622)"/></g></svg>