<svg height="16" width="16" xmlns="http://www.w3.org/2000/svg"><path d="m7.9589844 1a1.0005882 1.0005882 0 0 0 -.875.5996094l-1.4882813 3.4003906h-3.8457031a1.0005882 1.0005882 0 0 0 -.6640625 1.7480469l2.9941406 2.6523437-1.5214843 4.2636714a1.0005882 1.0005882 0 0 0 1.4628906 1.189454l3.9785156-2.431641 3.978516 2.431641a1.0005882 1.0005882 0 0 0 1.46289-1.189454l-1.521484-4.2636714 2.99414-2.6523437a1.0005882 1.0005882 0 0 0 -.664062-1.7480469h-3.845703l-1.4882814-3.4003906a1.0005882 1.0005882 0 0 0 -.9570312-.5996094zm.0410156 1 1.75 4h4.5l-3.5 3.1015625 1.75 4.8984375-4.5-2.75-4.5 2.75 1.75-4.8984375-3.5-3.1015625h4.5z" fill="#555761"/></svg>